<svg xmlns="http://www.w3.org/2000/svg" viewBox="0 0 192 192" width="192" height="192">
  <!-- Background circle -->
  <circle cx="96" cy="96" r="88" fill="#FFB6C1" stroke="#FF69B4" stroke-width="2"/>
  
  <!-- Main character simplified -->
  <g transform="translate(50, 35)">
    <!-- Hair -->
    <path d="M10 20 Q5 10 15 8 Q25 5 35 8 Q45 10 40 20 Q42 30 38 40 L12 40 Q8 30 10 20" fill="#8B4513"/>
    
    <!-- Face -->
    <ellipse cx="25" cy="30" rx="12" ry="15" fill="#FDBCB4"/>
    
    <!-- Glasses -->
    <circle cx="21" cy="28" r="4" fill="none" stroke="#333" stroke-width="1"/>
    <circle cx="29" cy="28" r="4" fill="none" stroke="#333" stroke-width="1"/>
    
    <!-- Eyes -->
    <circle cx="21" cy="28" r="1.5" fill="#333"/>
    <circle cx="29" cy="28" r="1.5" fill="#333"/>
    
    <!-- Smile -->
    <path d="M20 33 Q25 36 30 33" fill="none" stroke="#333" stroke-width="1" stroke-linecap="round"/>
    
    <!-- Body -->
    <rect x="18" y="42" width="14" height="20" rx="7" fill="#87CEEB"/>
  </g>
  
  <!-- Smaller character -->
  <g transform="translate(100, 50)">
    <!-- Hair -->
    <path d="M8 15 Q4 8 11 6 Q18 4 24 6 Q29 8 26 15 Q28 22 24 30 L9 30 Q5 22 8 15" fill="#DEB887"/>
    
    <!-- Face -->
    <ellipse cx="17" cy="22" rx="9" ry="11" fill="#FDBCB4"/>
    
    <!-- Eyes -->
    <circle cx="15" cy="21" r="1" fill="#40E0D0"/>
    <circle cx="19" cy="21" r="1" fill="#40E0D0"/>
    
    <!-- Smile -->
    <path d="M14 25 Q17 27 20 25" fill="none" stroke="#333" stroke-width="1" stroke-linecap="round"/>
    
    <!-- Body -->
    <rect x="12" y="32" width="10" height="16" rx="5" fill="#E6E6FA"/>
  </g>
  
  <!-- Simplified agenda -->
  <g transform="translate(30, 90)">
    <!-- Notebook -->
    <rect x="0" y="0" width="60" height="70" rx="4" fill="#FFFACD" stroke="#DDD" stroke-width="1"/>
    
    <!-- Lines representing tasks -->
    <line x1="8" y1="15" x2="52" y2="15" stroke="#4CAF50" stroke-width="2"/>
    <line x1="8" y1="25" x2="52" y2="25" stroke="#4CAF50" stroke-width="2"/>
    <line x1="8" y1="35" x2="52" y2="35" stroke="#666" stroke-width="1"/>
    <line x1="8" y1="45" x2="52" y2="45" stroke="#666" stroke-width="1"/>
    <line x1="8" y1="55" x2="52" y2="55" stroke="#666" stroke-width="1"/>
    
    <!-- Checkmarks -->
    <text x="5" y="18" font-size="8" fill="#4CAF50">✓</text>
    <text x="5" y="28" font-size="8" fill="#4CAF50">✓</text>
    <text x="5" y="38" font-size="8" fill="#666">□</text>
    <text x="5" y="48" font-size="8" fill="#666">□</text>
  </g>
  
  <!-- Stars decoration -->
  <text x="15" y="25" font-size="12" fill="#FFD700">⭐</text>
  <text x="160" y="40" font-size="10" fill="#FFB6C1">✨</text>
  <text x="170" y="170" font-size="12" fill="#87CEEB">🌟</text>
</svg>